<svg width="40" height="40" viewBox="0 0 40 40" fill="none" xmlns="http://www.w3.org/2000/svg">
<g clip-path="url(#clip0_35_42)">
<path d="M35.3132 20C35.3128 19.0804 35.2284 18.1628 35.061 17.2583L40.1784 14.3333L35.1334 5.66666L30.0144 8.59834C28.601 7.39988 26.9768 6.4699 25.2234 5.855V0H15.1334V5.855C13.3798 6.4699 11.7557 7.39988 10.3423 8.59834L5.22334 5.66666L0.178345 14.3333L5.29564 17.2583C4.9595 19.0709 4.9595 20.929 5.29564 22.7416L0.178345 25.6666L5.22334 34.3334L10.3423 31.4034C11.7558 32.6012 13.3799 33.5306 15.1334 34.145V40H25.2234V34.145C26.9768 33.5302 28.601 32.6002 30.0144 31.4016L35.1334 34.3334L40.1784 25.6666L35.061 22.7416C35.2284 21.8372 35.3128 20.9196 35.3132 20ZM25.2234 20C25.2234 20.989 24.9274 21.9556 24.373 22.7778C23.8188 23.6 23.0308 24.241 22.109 24.6194C21.1872 24.9978 20.1728 25.0968 19.1941 24.904C18.2155 24.711 17.3166 24.2348 16.611 23.5356C15.9055 22.8362 15.425 21.9454 15.2303 20.9754C15.0356 20.0056 15.1355 19.0002 15.5174 18.0866C15.8992 17.173 16.5459 16.3921 17.3755 15.8427C18.2051 15.2932 19.1805 15 20.1784 15C21.5164 15 22.7996 15.5268 23.7456 16.4645C24.6918 17.4021 25.2234 18.6739 25.2234 20Z" fill="black"/>
</g>
<defs>
<clipPath id="clip0_35_42">
<rect width="40" height="40" fill="white"/>
</clipPath>
</defs>
</svg>
